<svg id="Layer_1" data-name="Layer 1" xmlns="http://www.w3.org/2000/svg" viewBox="0 0 122.88 121.74"><title>remove-categories</title><path d="M5,0H49.39a5,5,0,0,1,5,5V49.19a5,5,0,0,1-5,5H5a5,5,0,0,1-5-5V5A5,5,0,0,1,5,0ZM110.21,73l7,7a3.67,3.67,0,0,1,0,5.17l-9.48,9.48,9.47,9.47a3.66,3.66,0,0,1,0,5.18l-7,7a3.67,3.67,0,0,1-5.17,0l-9.48-9.48-9.48,9.48a3.67,3.67,0,0,1-5.17,0l-7-7a3.66,3.66,0,0,1,0-5.18l9.47-9.47-9.47-9.48a3.65,3.65,0,0,1,0-5.17l7-7a3.67,3.67,0,0,1,5.17,0l9.48,9.48L105,73a3.67,3.67,0,0,1,5.17,0ZM5,67.53H49.39a5,5,0,0,1,5,5v44.18a5,5,0,0,1-5,5H5a5,5,0,0,1-5-5V72.55a5,5,0,0,1,5-5ZM73.49,0h44.37a5,5,0,0,1,5,5V49.19a5,5,0,0,1-5,5H73.49a5,5,0,0,1-5-5V5a5,5,0,0,1,5-5Z"/></svg>